HIERARCHY
ROOT SpineBase
{
  OFFSET 0.000000 0.000000 0.000000
  CHANNELS 6 Xposition Yposition Zposition Zrotation Xrotation Yrotation
  JOINT SpineMid
  {
    OFFSET 0.000000 28.511036 0.000000
    CHANNELS 3 Zrotation Xrotation Yrotation
    JOINT SpineShoulder
    {
      OFFSET -0.116086 21.243940 -0.632046
      CHANNELS 3 Zrotation Xrotation Yrotation
      JOINT Neck
      {
        OFFSET -0.072842 7.057644 -0.499467
        CHANNELS 3 Zrotation Xrotation Yrotation
        JOINT Head
        {
          OFFSET -2.456058 11.545725 -0.089317
          CHANNELS 3 Zrotation Xrotation Yrotation
          End Site
          {
            OFFSET 0 0 0
          }
        }
      }
      JOINT ShoulderLeft
      {
        OFFSET -16.513422 -1.679124 6.230033
        CHANNELS 3 Zrotation Xrotation Yrotation
        JOINT ElbowLeft
        {
          OFFSET -3.390008 -24.679312 3.566010
          CHANNELS 3 Zrotation Xrotation Yrotation
          JOINT WristLeft
          {
            OFFSET -4.612452 -20.275439 -3.472768
            CHANNELS 3 Zrotation Xrotation Yrotation
            JOINT HandLeft
            {
              OFFSET -0.801968 -6.794645 -3.093422
              CHANNELS 3 Zrotation Xrotation Yrotation
              JOINT HandTipLeft
              {
                OFFSET -0.086829 -6.399793 -1.828962
                CHANNELS 3 Zrotation Xrotation Yrotation
                End Site
                {
                  OFFSET 0 0 0
                }
              }
              JOINT ThumbLeft
              {
                OFFSET 2.022520 -2.347239 -2.615102
                CHANNELS 3 Zrotation Xrotation Yrotation
                End Site
                {
                  OFFSET 0 0 0
                }
              }
            }
          }
        }
      }
      JOINT ShoulderRight
      {
        OFFSET 15.434594 -0.831411 -4.979868
        CHANNELS 3 Zrotation Xrotation Yrotation
        JOINT ElbowRight
        {
          OFFSET 5.158731 -24.376230 -3.349421
          CHANNELS 3 Zrotation Xrotation Yrotation
          JOINT WristRight
          {
            OFFSET -1.048294 -19.569307 -5.011870
            CHANNELS 3 Zrotation Xrotation Yrotation
            JOINT HandRight
            {
              OFFSET -2.825415 -7.440344 -2.928906
              CHANNELS 3 Zrotation Xrotation Yrotation
              JOINT HandTipRight
              {
                OFFSET -0.964032 -6.452708 -3.473512
                CHANNELS 3 Zrotation Xrotation Yrotation
                End Site
                {
                  OFFSET 0 0 0
                }
              }
              JOINT ThumbRight
              {
                OFFSET -2.992185 -0.158150 -1.896882
                CHANNELS 3 Zrotation Xrotation Yrotation
                End Site
                {
                  OFFSET 0 0 0
                }
              }
            }
          }
        }
      }
    }
  }
  JOINT HipLeft
  {
    OFFSET -7.329874 0.741176 -1.853408
    CHANNELS 3 Zrotation Xrotation Yrotation
    JOINT KneeLeft
    {
      OFFSET -7.074735 -30.630533 0.316344
      CHANNELS 3 Zrotation Xrotation Yrotation
      JOINT AnkleLeft
      {
        OFFSET -0.855472 -34.873769 3.344537
        CHANNELS 3 Zrotation Xrotation Yrotation
        JOINT FootLeft
        {
          OFFSET -2.860088 -3.929769 -11.176535
          CHANNELS 3 Zrotation Xrotation Yrotation
          End Site
          {
            OFFSET 0 0 0
          }
        }
      }
    }
  }
  JOINT HipRight
  {
    OFFSET 6.670730 1.052718 -4.859604
    CHANNELS 3 Zrotation Xrotation Yrotation
    JOINT KneeRight
    {
      OFFSET 2.995049 -27.415639 -1.331044
      CHANNELS 3 Zrotation Xrotation Yrotation
      JOINT AnkleRight
      {
        OFFSET 0.769167 -37.775330 4.829477
        CHANNELS 3 Zrotation Xrotation Yrotation
        JOINT FootRight
        {
          OFFSET -2.660068 -8.254210 -4.019234
          CHANNELS 3 Zrotation Xrotation Yrotation
          End Site
          {
            OFFSET 0 0 0
          }
        }
      }
    }
  }
}
MOTION
Frames: 8
Frame Time: 0.033333
34.966073 72.575575 367.325486 -0.000000 0.000000 12.118490 -0.000000 0.000000 -12.118490 -0.000000 0.000000 0.000000 -0.000000 0.000000 0.000000 0.000000 0.000000 0.000000 -0.000000 0.000000 0.000000 -0.000000 0.000000 0.000000 -0.000000 0.000000 0.000000 -0.000000 0.000000 0.000000 0.000000 0.000000 0.000000 0.000000 0.000000 0.000000 -0.000000 0.000000 0.000000 -0.000000 0.000000 0.000000 -0.000000 0.000000 0.000000 -0.000000 0.000000 0.000000 0.000000 0.000000 0.000000 0.000000 0.000000 0.000000 -0.000000 0.000000 -12.118490 -0.000000 0.000000 0.000000 -0.000000 0.000000 0.000000 0.000000 0.000000 0.000000 -0.000000 0.000000 -12.118490 -0.000000 0.000000 0.000000 -0.000000 0.000000 0.000000 0.000000 0.000000 0.000000
35.172941 72.603113 367.234726 0.123064 0.141329 12.082486 -0.149921 -0.112438 -12.082785 -0.000000 0.000000 0.000000 -0.000000 0.000000 0.000000 0.000000 0.000000 0.000000 -0.000000 0.000000 0.000000 -0.234319 1.207127 -0.231491 0.462861 0.544440 -0.071793 0.321547 -2.994231 0.192042 0.000000 0.000000 0.000000 0.000000 0.000000 0.000000 -0.000000 0.000000 0.000000 -0.000000 0.000000 0.000000 0.616115 1.242540 -0.719470 -0.448326 -3.081901 0.918040 0.000000 0.000000 0.000000 0.000000 0.000000 0.000000 -0.149921 -0.112438 -12.082785 -0.000000 0.000000 0.000000 -0.208408 1.242895 -0.299974 0.000000 0.000000 0.000000 -0.149921 -0.112438 -12.082785 -0.000000 0.000000 0.000000 -0.898419 12.736119 -3.389856 0.000000 0.000000 0.000000
35.287661 72.631368 367.179186 0.205449 0.241862 12.077833 -0.251510 -0.193518 -12.078691 -0.000000 0.000000 0.000000 -0.000000 0.000000 0.000000 0.000000 0.000000 0.000000 -0.249766 0.977299 -0.168364 -0.141063 1.345480 -0.286459 0.857940 0.676185 -0.088965 0.345292 -4.991508 0.413380 0.000000 0.000000 0.000000 0.000000 0.000000 0.000000 -0.000000 0.000000 0.000000 -0.000000 0.000000 0.000000 1.127120 2.172177 -1.285198 -0.637700 -5.663720 1.602401 0.000000 0.000000 0.000000 0.000000 0.000000 0.000000 -1.552462 0.319535 -12.144324 0.308792 0.061018 -0.041553 0.683694 1.839189 -0.317140 0.000000 0.000000 0.000000 -0.251510 -0.193518 -12.078691 -0.750773 0.343168 -0.086795 -0.590748 22.064935 -5.739974 0.000000 0.000000 0.000000
35.310231 72.660338 367.158867 0.247186 0.301624 12.105098 -0.304945 -0.243077 -12.106396 -0.000000 0.000000 0.000000 -0.000000 0.000000 0.000000 0.000000 0.000000 0.000000 -0.287107 1.353568 -0.224337 -0.177355 1.986806 -0.444303 1.188315 0.450590 -0.061180 0.059076 -6.055650 0.638471 0.000000 0.000000 0.000000 0.000000 0.000000 0.000000 -0.000000 0.000000 0.000000 -0.000000 0.000000 0.000000 1.544868 2.832668 -1.714243 -0.608411 -7.792452 2.086079 0.000000 0.000000 0.000000 0.000000 0.000000 0.000000 -1.898327 0.672578 -12.247605 0.666036 -0.306038 0.037274 0.546273 2.429620 -0.283778 0.000000 0.000000 0.000000 -0.304945 -0.243077 -12.106396 -0.938688 0.469814 -0.106670 -0.746685 28.597808 -7.265465 0.000000 0.000000 0.000000
35.240652 72.690023 367.173768 0.248328 0.320665 12.164738 -0.310327 -0.261132 -12.166140 -0.000000 0.000000 0.000000 -0.000000 0.000000 0.000000 0.000000 0.000000 0.000000 -0.267208 1.656361 -0.262749 -0.188126 2.597562 -0.611648 1.459356 -0.098076 0.004534 -0.551283 -6.222301 0.861912 0.000000 0.000000 0.000000 0.000000 0.000000 0.000000 -0.000000 0.000000 0.000000 -0.000000 0.000000 0.000000 1.877916 3.250327 -2.017032 -0.384136 -9.499325 2.384766 0.000000 0.000000 0.000000 0.000000 0.000000 0.000000 -1.928029 1.150076 -12.411976 1.883505 -1.030035 0.275319 -0.664375 2.920977 -0.204192 0.000000 0.000000 0.000000 -0.310327 -0.261132 -12.166140 -1.005371 0.567996 -0.112079 -1.191523 32.653849 -7.981925 0.000000 0.000000 0.000000
35.078924 72.720425 367.223889 0.208952 0.299057 12.257097 -0.267680 -0.247877 -12.258222 -0.000000 0.000000 0.000000 1.027155 -0.334960 -0.060189 0.000000 0.000000 0.000000 -0.190596 1.886566 -0.284179 -0.172626 3.172126 -0.788507 1.678569 -0.955099 0.103970 -1.501494 -5.500041 1.098172 0.000000 0.000000 0.000000 0.000000 0.000000 0.000000 -0.000000 0.000000 0.000000 -0.000000 0.000000 0.000000 2.131779 3.436622 -2.197960 0.023795 -10.800839 2.499996 0.000000 0.000000 0.000000 0.000000 0.000000 0.000000 -1.632484 1.741287 -12.639347 1.767658 -1.641707 0.424244 -0.776848 2.851464 0.142280 0.000000 0.000000 0.000000 -0.267680 -0.247877 -12.258222 -0.951255 0.638399 -0.103411 -2.062477 34.677484 -7.946488 0.000000 0.000000 0.000000
34.883250 72.755172 367.318427 0.116836 0.219432 12.368140 -0.161125 -0.189313 -12.368630 -0.000000 0.000000 0.000000 1.626510 -0.214922 -0.029994 0.000000 0.000000 0.000000 -0.100972 1.928638 -0.278481 -0.214335 3.843756 -0.964664 2.655129 -2.145318 -0.029078 -2.947642 -3.146661 1.540012 0.000000 0.000000 0.000000 0.000000 0.000000 0.000000 1.214230 -0.029488 -0.172395 -1.214314 0.025828 0.172981 2.687923 2.647500 -2.125329 0.148659 -11.544091 2.390184 0.000000 0.000000 0.000000 0.000000 0.000000 0.000000 -1.040899 2.562361 -12.941215 2.378012 -3.134694 0.769031 -2.025527 3.561028 0.982893 0.000000 0.000000 0.000000 -0.161125 -0.189313 -12.368630 -0.798112 0.678821 -0.083563 -3.762779 35.797431 -7.159340 0.000000 0.000000 0.000000
34.542977 72.791206 367.437565 -0.126961 0.081989 12.516225 0.106176 -0.107554 -12.516035 -0.000000 0.000000 0.000000 2.708161 -0.001995 0.020474 0.000000 0.000000 0.000000 0.102898 1.937326 -0.253663 -0.317678 4.316218 -1.122311 2.998949 -3.211273 0.039422 -5.068073 -0.349787 2.065403 0.000000 0.000000 0.000000 0.000000 0.000000 0.000000 1.663981 0.042687 -0.219555 -1.663806 -0.049045 0.218223 2.702960 2.586878 -2.107689 0.987677 -11.336291 1.973699 0.000000 0.000000 0.000000 0.000000 0.000000 0.000000 0.110072 3.301417 -13.291888 3.113074 -4.588332 1.212352 -4.074684 5.446740 1.735414 0.000000 0.000000 0.000000 0.106176 -0.107554 -12.516035 -0.571400 0.835598 -0.051925 -5.030480 35.601869 -6.454135 0.000000 0.000000 0.000000
